# xmcd CD database file
#
# Track frame offsets:
#	210
#	11080
#	21862
#	35445
#	50446
#	63244
#	76367
#	89408
#	100373
#	113563
#	123733
#	134446
#	144962
#	155799
#	166028
#	177964
#	189846
#	201989
#	214825
#	225520
#	237689
#	247625
#
# Disc length: 3451 seconds
#
# Revision: 0
# Processed by: cddbd v1.5PL3 Copyright (c) Steve Scherf et al.
# Submitted via: CDex 1.51
#
DISCID=290d7916
DTITLE=The Dixon Brothers - Volume 4: 1938
DYEAR=1900
DGENRE=Country
TTITLE0=Time For Me To Go
TTITLE1=Beyond Black Smoke
TTITLE2=When Gabriel Blows His Trumpet For Me
TTITLE3=Speak Evil Of No Man
TTITLE4=Jimmie And Sallie
TTITLE5=The Story Of George Collins
TTITLE6=The Light Of Homer Rogers
TTITLE7=After The Ball
TTITLE8=Frank Gerald-Howard Dixon/'Twas Only A Dream
TTITLE9=Frank Gerald-Howard Dixon/ Answer To Broken Engagement
TTITLE10=Frank Gerald-Howard Dixon/ By The Old Oaken Bucket, Louise. 
TTITLE11=Frank Gerald-Howard Dixon and Mutt Evans/Honey Baby Mine
TTITLE12=Frank Gerald-Howard Dixon and Mutt Evans/My Trundle Bed
TTITLE13=Frank Gerald-Howard Dixon and Mutt Evans/New Trouble
TTITLE14=Dixie Reelers/What A Friend We Have In Mother
TTITLE15=Dixie Reelers/My Heart Is Broken For You
TTITLE16=Dixie Reelers/Answer To Maple On The Hill - Part 2
TTITLE17=Dixie Reelers/Lonesome Valley - Part 2
TTITLE18=Dixie Reelers/Walkin' In My Sleep
TTITLE19=Dixie Reelers/Father, Dear Father
TTITLE20=Dixie Reelers/I Shall Not Be Moved
TTITLE21=Dixie Reelers/Do You Want To See Mother Again ?
EXTD=
EXTT0=
EXTT1=
EXTT2=
EXTT3=
EXTT4=
EXTT5=
EXTT6=
EXTT7=
EXTT8=
EXTT9=
EXTT10=
EXTT11=
EXTT12=
EXTT13=
EXTT14=
EXTT15=
EXTT16=
EXTT17=
EXTT18=
EXTT19=
EXTT20=
EXTT21=
PLAYORDER=
